<?xml version="1.0" standalone="no"?>
<!DOCTYPE svg PUBLIC "-//W3C//DTD SVG 20010904//EN"
 "http://www.w3.org/TR/2001/REC-SVG-20010904/DTD/svg10.dtd">
<svg version="1.0" xmlns="http://www.w3.org/2000/svg"
 width="554.081628pt" height="129.991360pt" viewBox="0 0 554.081628 129.991360"
 preserveAspectRatio="xMidYMid meet">
<metadata>
Created by potrace 1.12, written by Peter Selinger 2001-2015
</metadata>
<g transform="translate(-50.917666,305.991360) scale(0.100000,-0.100000)"
fill="#000000" stroke="none">
<path d="M1288 3025 c-20 -19 -42 -52 -49 -72 -14 -45 -96 -194 -153 -278 -22
-33 -130 -181 -241 -330 -324 -435 -361 -498 -325 -566 6 -10 18 -19 27 -19
31 0 140 70 183 117 24 26 101 109 171 183 70 74 139 150 154 168 15 18 29 31
31 29 2 -2 -12 -36 -32 -76 -46 -93 -52 -129 -27 -160 l19 -23 52 26 c29 15
72 43 95 63 82 72 74 70 93 24 13 -32 21 -41 40 -41 34 0 113 42 148 79 l29
31 19 -30 c23 -38 57 -39 134 -5 87 39 151 97 221 204 2 4 173 -164 173 -170
0 -2 -61 2 -135 10 -128 13 -136 13 -155 -4 -27 -24 -25 -37 8 -61 93 -68 297
-88 391 -40 16 9 36 16 43 16 7 0 26 10 42 23 40 32 31 50 -66 144 -133 128
-158 156 -189 210 -41 70 -52 78 -86 64 -43 -18 -75 -52 -107 -112 -46 -86
-115 -186 -132 -193 -17 -7 -17 16 1 99 5 23 1 37 -13 55 l-20 25 -48 -34
c-27 -19 -74 -62 -104 -97 -30 -35 -58 -64 -63 -64 -12 0 4 52 34 109 30 56
35 86 20 110 -20 31 -78 -15 -176 -139 -71 -89 -114 -134 -122 -127 -2 3 28
64 67 135 74 135 81 164 39 177 -48 16 -144 -69 -476 -420 -78 -82 -142 -145
-143 -139 -1 26 78 142 301 442 288 388 456 692 382 692 -10 0 -35 -16 -55
-35z"/>
<path d="M4405 2879 c-55 -5 -210 -20 -345 -34 -135 -14 -270 -27 -300 -30
-207 -19 -387 -37 -400 -40 -8 -2 -72 -11 -142 -20 -230 -28 -314 -51 -405
-113 -90 -61 -96 -71 -78 -115 8 -21 19 -37 23 -37 5 0 21 14 38 31 54 57 102
71 369 109 83 11 166 23 185 26 l35 6 -26 -24 c-15 -13 -35 -52 -48 -93 -54
-165 -152 -324 -223 -361 -17 -9 -58 -16 -92 -17 -33 -1 -59 -6 -58 -11 2 -5
-3 -13 -12 -18 -22 -12 -20 -25 9 -53 31 -32 57 -31 129 5 184 93 281 202 364
408 20 48 36 105 36 129 l1 41 60 6 c33 3 92 9 130 12 104 8 138 12 265 29
170 23 276 34 465 50 146 12 177 18 220 40 64 33 69 39 56 64 -10 19 -20 21
-84 20 -40 -1 -117 -6 -172 -10z"/>
<path d="M1799 2780 c-29 -18 -77 -71 -128 -140 -96 -128 -115 -162 -106 -190
7 -23 13 -24 50 -10 30 11 34 16 140 153 106 137 130 177 118 196 -15 24 -27
23 -74 -9z"/>
<path d="M4240 2568 c-14 -5 -42 -21 -63 -35 -32 -23 -37 -31 -32 -52 9 -36
25 -53 39 -43 6 5 32 17 59 27 26 10 47 23 47 31 0 7 5 14 11 16 16 5 2 46
-19 57 -10 5 -27 5 -42 -1z"/>
<path d="M5565 2539 c-27 -14 -50 -37 -70 -71 -69 -115 -246 -262 -286 -237
-12 7 -11 14 5 44 15 27 17 41 9 53 -16 27 -47 25 -121 -7 -64 -28 -176 -60
-211 -61 -8 0 5 13 29 29 53 36 120 119 112 140 -12 36 -25 43 -71 37 -81 -11
-229 -98 -278 -164 -37 -50 -41 -52 -93 -52 -44 0 -47 2 -59 37 -16 45 -16 45
121 111 103 50 113 62 80 102 -15 19 -21 20 -47 10 -17 -6 -65 -34 -109 -62
-85 -55 -96 -54 -96 10 0 41 -32 76 -63 67 -12 -4 -39 -18 -59 -32 -43 -29
-47 -49 -23 -126 13 -45 13 -48 -5 -60 -27 -16 -25 -27 5 -27 18 0 31 -11 50
-45 15 -25 40 -59 56 -76 28 -30 32 -31 80 -25 28 4 71 14 96 22 27 9 56 13
72 9 51 -14 154 -3 252 26 115 34 109 33 109 15 0 -8 11 -28 25 -44 31 -37 94
-46 185 -26 90 20 116 32 127 57 6 12 22 29 37 37 26 13 28 12 49 -14 19 -24
29 -27 72 -26 28 1 66 -2 85 -7 19 -5 64 -5 100 0 36 4 108 5 160 1 52 -4 100
-6 105 -5 6 2 20 4 32 5 16 1 23 7 23 22 0 48 -55 74 -155 74 l-62 0 5 29 c2
17 -3 40 -14 56 -17 26 -21 27 -76 22 -34 -3 -72 -14 -93 -27 -20 -12 -38 -20
-40 -18 -3 2 10 41 27 86 26 69 29 87 20 107 -14 31 -42 31 -97 4z"/>
<path d="M3961 2529 c-71 -13 -141 -39 -206 -74 -65 -36 -190 -145 -199 -173
-3 -9 -30 -30 -60 -45 -74 -39 -101 -69 -87 -96 15 -26 18 -26 83 4 52 24 53
24 68 5 13 -17 25 -19 90 -16 58 3 93 11 157 39 l82 35 11 -29 c14 -32 64 -59
112 -59 42 0 193 52 219 76 23 20 25 69 4 78 -17 6 -45 -2 -45 -14 0 -10 -45
-27 -91 -35 -26 -5 -39 -2 -49 10 -15 17 -7 40 31 86 23 29 20 63 -7 73 -19 7
-68 -17 -112 -55 -18 -16 -54 -40 -80 -53 -51 -25 -179 -62 -187 -54 -3 3 32
24 77 48 134 69 268 177 268 217 0 31 -26 41 -79 32z m-101 -113 c0 -6 -105
-66 -115 -66 -11 0 34 34 70 53 30 16 45 20 45 13z"/>
<path d="M5173 2513 c-41 -20 -53 -32 -53 -49 0 -40 23 -53 72 -42 24 6 50 14
58 19 8 5 23 12 33 16 11 3 16 12 12 24 -3 11 -8 28 -11 39 -8 28 -47 25 -111
-7z"/>
</g>
</svg>
